<svg width="153" height="135" viewBox="0 0 153 135" fill="none" xmlns="http://www.w3.org/2000/svg">
<path d="M30.4287 98.2607H36.6152V104.926H30.4287V116H22.123V104.926H0.624023L0.384766 99.8672L21.8496 66.2344H30.4287V98.2607ZM9.10059 98.2607H22.123V77.4795L21.5078 78.5732L9.10059 98.2607Z" fill="#0DE6CB"/>
<path d="M99 91C99 105.912 86.9117 118 72 118C57.0883 118 45 105.912 45 91C45 76.0883 57.0883 64 72 64C86.9117 64 99 76.0883 99 91ZM53.4166 91C53.4166 101.263 61.7367 109.583 72 109.583C82.2633 109.583 90.5834 101.263 90.5834 91C90.5834 80.7367 82.2633 72.4166 72 72.4166C61.7367 72.4166 53.4166 80.7367 53.4166 91Z" fill="#0DE6CB"/>
<line x1="86.317" y1="76.8959" x2="57.896" y2="105.317" stroke="#0DE6CB" stroke-width="7"/>
<path d="M102.1 23.6607C101.041 24.2016 100.034 24.8393 99.0924 25.5655C98.1462 26.298 97.4217 27.2788 96.9996 28.3987C96.4139 27.1825 96.0954 25.8601 95.7049 24.5686C94.9571 22.2253 94.0742 19.9273 93.0607 17.6861C94.7295 17.0488 96.176 15.9379 97.2223 14.4897C99.2774 16.5281 101.37 18.6521 102.387 21.3414C102.562 21.8073 103.072 22.3041 103.192 22.7118C103.353 23.3181 102.545 23.4141 102.1 23.6607Z" fill="#FFBFC5"/>
<path d="M121.346 73.3114C123.581 74.0165 125.664 75.1317 127.491 76.6003C127.628 76.6859 127.727 76.8207 127.768 76.9771C127.816 77.3197 127.343 77.4739 127.001 77.5732C125.973 77.8644 125.347 78.8134 124.603 79.5534C123.86 80.2933 122.668 80.8792 121.801 80.2865C121.574 80.1119 121.375 79.9027 121.212 79.6664L117.554 74.8976C118.794 74.203 120.099 73.6294 121.449 73.1847" fill="#F1F1F1"/>
<path d="M127.926 74.3049C128.412 74.7982 128.611 75.5108 129.097 76.0178C129.416 76.3234 129.781 76.5767 130.179 76.7681L132.981 78.3097C133.416 78.5675 133.875 78.782 134.351 78.9504C134.879 79.1006 135.415 79.2151 135.958 79.293C136.735 79.4432 137.495 79.6727 138.225 79.9781C138.773 80.2042 139.386 80.5913 139.383 81.184C139.359 81.4753 139.239 81.7503 139.04 81.9651C137.938 83.356 135.982 83.678 134.214 83.8528C130.392 84.257 126.48 84.5585 122.743 83.6575C122.013 83.523 121.324 83.2243 120.726 82.7839C119.599 81.8486 119.356 80.146 119.794 78.7448C119.913 78.2063 120.231 77.7327 120.685 77.419C121.277 77.0764 122.014 77.2374 122.695 77.186C123.413 77.0847 124.108 76.8611 124.751 76.5249C125.179 76.333 125.669 76.0829 125.778 75.5759C125.888 75.0689 125.309 74.6304 125.436 74.2056C125.675 73.2497 127.48 73.8493 127.926 74.3049Z" fill="#B9FFF6"/>
<path d="M134.423 89.6047L135.602 90.3824C135.961 90.5748 136.258 90.8675 136.454 91.2251C136.711 91.8247 136.365 92.503 135.982 93.0306C134.831 94.6054 133.259 95.8236 131.447 96.5455C130.819 96.807 130.155 96.9722 129.477 97.0354C129.323 97.0607 129.165 97.0417 129.022 96.9806C128.662 96.7887 128.713 96.2783 128.71 95.8706C128.71 94.6955 127.809 93.7397 126.997 92.873C126.186 92.0062 125.384 90.9442 125.569 89.7897C125.739 89.1036 126.094 88.4777 126.597 87.9809C127.038 87.424 127.557 86.9336 128.138 86.5249C128.97 85.9802 129.261 86.2748 130.042 86.7715C131.511 87.7056 132.971 88.65 134.423 89.6047Z" fill="#F1F1F1"/>
<path d="M134.929 100.261H141.115V106.926H134.929V118H126.623V106.926H105.124L104.885 101.867L126.35 68.2344H134.929V100.261ZM113.601 100.261H126.623V79.4795L126.008 80.5732L113.601 100.261Z" fill="#0DE6CB"/>
<path d="M130.601 95.3397C130.921 95.4206 131.255 95.4249 131.577 95.3523C131.899 95.2796 132.199 95.1321 132.454 94.9217C132.96 94.497 133.37 93.9691 133.656 93.3732C133.944 92.8459 134.193 92.2987 134.403 91.7357C134.649 91.0745 134.875 90.3448 135.458 89.9439C136.143 89.4575 137.15 89.6493 137.855 90.1187C138.561 90.588 139.095 91.2835 139.701 91.8864C141.13 93.3116 143.01 94.2126 144.942 94.8018C146.874 95.391 148.878 95.6857 150.861 96.0659C151.259 96.1191 151.644 96.2433 151.998 96.4325C152.799 96.9224 153.07 98.0153 152.844 98.9265C152.618 99.8378 152.025 100.591 151.378 101.277C150.839 101.916 150.17 102.433 149.415 102.794C148.779 103.026 148.109 103.154 147.432 103.171C144.147 103.393 140.847 103.134 137.636 102.404C136.458 102.082 135.258 101.842 134.046 101.688C133.31 101.623 132.563 101.643 131.827 101.592C130.356 101.49 128.917 101.112 127.587 100.475C127.263 100.355 126.991 100.128 126.816 99.831C126.719 99.5584 126.699 99.2645 126.758 98.9813L127.247 94.6853C127.292 94.3119 127.415 93.846 127.789 93.7878C128.162 93.7295 128.398 94.0961 128.621 94.377C129.053 94.8935 129.644 95.2519 130.302 95.3958C130.96 95.5396 131.647 95.4608 132.255 95.1718" fill="#B9FFF6"/>
<path d="M102.158 41.1633C104.312 40.9201 106.813 40.879 108.272 42.4857C109.166 43.4724 109.437 44.853 109.745 46.1445C110.228 48.3175 111.015 50.4118 112.081 52.3658C112.766 53.5786 113.598 54.7126 114.136 56.0007C114.674 57.2888 114.876 58.7414 115.191 60.1425C116.453 65.6376 119.536 70.5443 123.939 74.0652C123.161 76.1789 120.911 77.3882 118.722 77.9295C118.194 78.1045 117.627 78.1223 117.088 77.9809C116.681 77.8045 116.319 77.5373 116.03 77.1998C115.007 76.0942 114.054 74.926 113.177 73.702C110.022 69.4882 106.823 65.1888 105.104 60.2179C104.501 58.4707 103.898 56.4495 102.203 55.706C101.237 55.2881 100.13 55.4183 99.0925 55.5964C96.7733 55.9886 94.491 56.5742 92.2695 57.347C89.8993 58.1727 87.1865 59.1867 85.0184 57.926C83.7202 57.1689 82.9633 55.7197 82.6653 54.2466C82.3673 52.7735 82.518 51.2525 82.6653 49.7588C82.6798 49.0857 82.8411 48.424 83.138 47.8198C83.4382 47.3676 83.8232 46.9778 84.2717 46.6721C86.2086 45.2047 88.3628 44.0489 90.6563 43.2462C92.8449 42.472 95.2015 42.2185 97.4861 41.8314C99.0365 41.5619 100.594 41.3392 102.158 41.1633Z" fill="#B9FFF6"/>
<path d="M114.495 56.7098C115.501 57.2127 116.425 57.8654 117.236 58.6454C118.109 59.5772 118.64 60.7797 119.092 61.9787C119.27 62.3874 119.378 62.8227 119.414 63.2669C119.431 63.4887 119.396 63.7114 119.314 63.918C119.231 64.1246 119.103 64.3096 118.938 64.4591C118.54 64.7202 118.066 64.8408 117.592 64.8017C116.968 64.8017 116.342 64.8017 115.718 64.7537C115.338 64.7508 114.962 64.6788 114.608 64.5413C114.284 64.3758 113.992 64.1543 113.745 63.8869C112.647 62.8667 111.747 61.6517 111.091 60.3035C110.639 59.3066 109.892 57.0044 110.604 55.9664C111.317 54.9284 113.721 56.2679 114.495 56.7098Z" fill="#FFBFC5"/>
<path d="M84.275 56.3535C87.4638 57.3813 90.8582 57.4909 94.1909 57.8026C99.7965 58.3273 105.334 59.4224 110.717 61.0709C111.82 61.4135 112.947 61.7835 113.834 62.52C114.555 63.1868 115.166 63.9639 115.643 64.8222C116.519 66.1562 117.311 67.5429 118.017 68.9743C118.623 70.2693 119.085 71.6259 119.647 72.938C121.539 77.3332 124.532 81.1666 128.337 84.0686C129.022 84.5996 129.806 85.1751 129.984 86.0282C130.065 86.5785 129.975 87.1405 129.727 87.6383C128.905 89.5534 127.199 90.9477 125.408 92.0131C124.641 92.4722 123.791 92.9347 123.415 93.7501C120.695 92.6264 118.671 90.2283 116.989 87.8165C115.307 85.4047 113.81 82.8045 111.653 80.8038C110.704 79.9199 109.625 79.1525 108.875 78.0905C107.734 76.4735 107.426 74.2604 105.891 73.0134C104.357 71.7664 102.124 71.9274 100.14 72.1227C89.9795 73.1136 79.7411 72.9987 69.6049 71.7801C67.4984 71.53 65.3337 71.208 63.5081 70.122C61.6824 69.036 60.261 67.0079 60.5179 64.901C60.7611 62.9277 62.4017 61.3655 64.2342 60.5947C66.0667 59.8239 68.0875 59.6834 70.057 59.4608C74.9585 58.9195 79.6373 58.0288 84.275 56.3535Z" fill="#B9FFF6"/>
<path d="M55.1301 60.4475C55.3802 58.7757 56.0276 57.1929 56.4352 55.552C56.6386 54.5192 56.897 53.4979 57.2092 52.4927C57.2092 52.4618 57.2332 52.4344 57.2435 52.407C57.3468 52.3987 57.4471 52.3676 57.5371 52.3161C57.627 52.2646 57.7046 52.1939 57.7641 52.109C57.8203 51.9628 57.8357 51.8042 57.8086 51.6499C57.7966 51.4868 57.7966 51.3231 57.8086 51.16C58.4763 50.0411 59.2059 48.9603 59.9939 47.9226C61.364 45.9664 62.5697 43.887 63.7616 41.8109C64.7412 40.098 65.7208 38.4056 66.5292 36.6173C67.1389 35.2778 67.6492 33.8766 68.3206 32.5817C70.7182 27.9225 75.0065 24.4864 79.6237 22.0198C84.0559 19.6525 88.8477 18.0595 93.506 16.1753C93.6245 16.2943 93.7333 16.4226 93.8314 16.559C96.3489 20.002 96.6195 24.5241 97.6573 28.6625C98.0752 30.3343 98.6335 31.9993 98.6335 33.719C98.6335 36.261 97.4175 38.6249 96.2084 40.8619C95.0747 42.9688 93.9067 45.0757 92.403 46.936C91.6906 47.8198 90.9062 48.6489 90.1904 49.5225C87.2516 53.123 85.5561 57.5527 83.9052 61.9C82.953 64.418 81.3911 66.6483 80.343 69.1286C79.9388 70.081 79.7059 71.1053 79.199 72.0097C78.692 72.9141 77.8117 73.7021 76.7773 73.7226C76.4747 73.7133 76.1743 73.6661 75.8834 73.5822C72.1396 72.6195 69.0056 70.1563 65.8955 67.8473C65.3372 67.4362 64.7789 67.032 64.1829 66.662C63.5869 66.292 62.9841 65.9528 62.3744 65.6342L60.9838 64.8703C59.4699 64.0412 57.9491 63.2087 56.3701 62.5064C55.8935 62.3203 55.4349 62.0909 55 61.8213C55.0046 61.3605 55.0481 60.9009 55.1301 60.4475Z" fill="#0DE6CB"/>
<path d="M104.069 23.3729C108.832 23.3729 112.694 19.5108 112.694 14.7466C112.694 9.98247 108.832 6.12036 104.069 6.12036C99.306 6.12036 95.4446 9.98247 95.4446 14.7466C95.4446 19.5108 99.306 23.3729 104.069 23.3729Z" fill="#FFBFC5"/>
<path d="M109.875 10.711C110.085 11.074 110.401 11.3641 110.781 11.5423C111.16 11.7205 111.585 11.7783 111.999 11.7079C112.41 11.6253 112.8 11.4565 113.142 11.2127C113.483 10.9688 113.77 10.6554 113.982 10.293C114.401 9.56559 114.652 8.75298 114.715 7.91549C114.787 7.26115 114.776 6.54514 114.355 6.03469C114.035 5.72133 113.666 5.46215 113.262 5.26731C112.704 4.92481 112.235 4.45528 111.892 3.89697C111.653 3.49615 111.478 3.06106 111.262 2.64996C110.478 1.15972 108.95 -0.0530256 107.268 0.00178788C106.46 0.0291946 105.689 0.344374 104.891 0.474556C102.216 0.943897 99.3117 -0.47098 96.8284 0.632142C96.2187 0.929146 95.6518 1.30712 95.1432 1.75582C94.4445 2.33364 93.7731 2.94116 93.1292 3.57837C92.57 4.05458 92.147 4.67041 91.903 5.36323C91.5605 6.63079 92.3654 8.04567 91.855 9.25157C91.6818 9.59711 91.4741 9.92423 91.2351 10.2279C90.6733 11.0536 91.283 14.2773 91.2351 15.2742C91.1654 15.7582 91.2884 16.2502 91.5776 16.6445C91.9852 17.1002 92.6668 17.1379 93.2902 17.1447H94.4102C94.5775 17.157 94.7456 17.1396 94.9069 17.0933C95.1271 16.9967 95.3209 16.8487 95.472 16.6617C96.4037 15.6785 96.6023 12.4684 97.9553 12.4821C98.1616 12.4684 98.3669 12.5212 98.541 12.6329C98.7842 12.811 98.8561 13.1433 99.0308 13.39C99.2291 13.6248 99.4977 13.7895 99.7969 13.8599C100.096 13.9302 100.41 13.9024 100.692 13.7805C101.25 13.5211 101.736 13.1282 102.107 12.6363C102.475 12.145 102.921 11.7178 103.429 11.3722C104.151 10.9508 104.967 10.7692 105.669 10.293C106.255 9.89563 106.587 9.32008 107.114 8.88157C107.642 8.44306 108.087 8.50473 108.649 8.79592C109.46 9.24471 109.495 9.95729 109.875 10.711Z" fill="#3F3D56"/>
<path opacity="0.1" d="M89.9472 25.908C91.9606 25.6207 94.0127 25.7845 95.955 26.3876C96.6036 26.5372 97.1892 26.8857 97.6299 27.3845C97.8822 27.761 98.0461 28.1896 98.1095 28.6384C98.5055 30.702 98.2505 32.8377 97.3799 34.7501C97.3186 34.8456 97.2781 34.9528 97.261 35.065C97.2439 35.1771 97.2505 35.2916 97.2806 35.401C97.3691 35.5382 97.4859 35.655 97.6231 35.7436C97.7438 35.8604 97.8385 36.0014 97.901 36.1574C97.9634 36.3134 97.9922 36.4808 97.9854 36.6487C97.9786 36.8166 97.9364 36.9812 97.8616 37.1316C97.7867 37.282 97.6809 37.4149 97.5511 37.5216C97.3902 37.6381 97.1778 37.7409 97.147 37.9361C97.1162 38.1314 97.3148 38.3198 97.4724 38.4706C97.7021 38.6956 97.8715 38.9749 97.9649 39.2826C98.0582 39.5904 98.0726 39.9167 98.0067 40.2315C97.9218 40.484 97.8633 40.7446 97.832 41.0091C97.8662 41.334 97.9627 41.6492 98.1163 41.9375C98.3781 42.589 98.4666 43.2972 98.3732 43.993C98.2902 44.3216 98.282 44.6646 98.3492 44.9968C98.4454 45.2163 98.5748 45.4196 98.7328 45.5997C99.3528 46.4357 99.4864 47.8334 98.589 48.3404C98.9735 48.5384 99.2867 48.8514 99.485 49.2358C99.6833 49.6202 99.7568 50.0569 99.6953 50.485C100.233 50.2007 100.884 50.5672 101.333 50.9783C101.781 51.3894 102.237 51.8965 102.843 51.9273C103.268 51.9478 103.716 51.7286 104.1 51.9033C104.689 52.1671 104.669 53.1229 105.248 53.4073C105.754 53.6608 106.463 53.2497 106.895 53.6162C107.046 53.743 107.121 53.9383 107.268 54.0719C107.594 54.3733 108.108 54.2466 108.553 54.226C109.604 54.1849 110.574 54.9112 111.118 55.7951C111.663 56.6789 111.858 57.7581 111.999 58.7995C112.114 59.3717 112.103 59.9624 111.964 60.5296C111.892 60.8115 111.738 61.0658 111.521 61.2607C111.305 61.4556 111.036 61.5826 110.748 61.6259C105.456 61.9684 100.233 60.6975 95.0782 59.4436C93.5642 59.0736 92.0263 58.6419 90.7624 57.7307C89.615 56.8982 88.7724 55.7265 87.9503 54.5755C86.433 52.448 84.9053 50.3069 83.8196 47.9327C82.4221 44.8803 81.7987 41.5367 81.189 38.2308C80.9787 37.345 80.9037 36.4326 80.9664 35.5243C81.1509 34.4627 81.5571 33.4518 82.1583 32.5576C82.8836 31.3732 83.6845 30.2369 84.556 29.1557C85.8815 27.5216 87.8647 26.2061 89.9472 25.908Z" fill="black"/>
<path d="M90.293 25.5654C92.3078 25.2779 94.3612 25.4429 96.3042 26.0484C96.9531 26.1953 97.5391 26.5429 97.9791 27.0419C98.2299 27.4192 98.3937 27.8474 98.4587 28.2958C98.8531 30.3595 98.5982 32.4947 97.7291 34.4075C97.6678 34.5029 97.6273 34.6102 97.6102 34.7224C97.5931 34.8345 97.5998 34.949 97.6298 35.0584C97.7184 35.1956 97.8351 35.3124 97.9723 35.401C98.093 35.5178 98.1877 35.6588 98.2502 35.8148C98.3126 35.9708 98.3414 36.1382 98.3346 36.3061C98.3278 36.474 98.2856 36.6385 98.2108 36.789C98.1359 36.9394 98.0302 37.0723 97.9004 37.179C97.7394 37.2955 97.527 37.3982 97.4962 37.5935C97.4654 37.7888 97.664 37.9772 97.8387 38.128C98.0684 38.353 98.2378 38.6323 98.3312 38.94C98.4246 39.2477 98.439 39.5741 98.373 39.8888C98.2881 40.1413 98.2296 40.402 98.1984 40.6665C98.2313 40.9912 98.3267 41.3064 98.4792 41.5949C98.7435 42.2457 98.8333 42.9543 98.7395 43.6504C98.6337 43.9237 98.6113 44.2224 98.6753 44.5084C98.7394 44.7945 98.8869 45.055 99.0992 45.2571C99.7192 46.093 99.8527 47.4908 98.9553 48.0184C99.3399 48.2154 99.6533 48.5277 99.8516 48.9116C100.05 49.2955 100.123 49.7318 100.062 50.1595C100.599 49.8752 101.25 50.2417 101.699 50.6528C102.148 51.0639 102.603 51.571 103.209 51.6018C103.634 51.6224 104.079 51.4031 104.466 51.5778C105.056 51.845 105.035 52.7974 105.614 53.0852C106.121 53.3353 106.83 52.9242 107.261 53.2907C107.412 53.4175 107.487 53.6128 107.635 53.7464C107.96 54.0479 108.474 53.9211 108.919 53.9006C109.971 53.8594 110.94 54.5857 111.485 55.4696C111.98 56.4003 112.28 57.4229 112.365 58.4741C112.475 59.041 112.463 59.6248 112.331 60.187C112.258 60.4689 112.104 60.7232 111.888 60.9181C111.671 61.113 111.403 61.24 111.115 61.2832C105.823 61.6258 100.599 60.3548 95.4445 59.101C93.9306 58.731 92.3892 58.2993 91.1288 57.3881C89.9813 56.559 89.1387 55.3839 88.3167 54.2329C86.7993 52.1088 85.2717 49.9677 84.1859 47.5936C82.7884 44.5377 82.1651 41.1941 81.5554 37.8916C81.3451 37.0047 81.27 36.0911 81.3327 35.1817C81.5074 34.1212 81.903 33.1093 82.4939 32.2115C83.2172 31.027 84.0181 29.8917 84.8915 28.8131C86.2308 27.1721 88.2139 25.86 90.293 25.5654Z" fill="#0DE6CB"/>
</svg>
