<svg width="241" height="206" viewBox="0 0 241 206" fill="none" xmlns="http://www.w3.org/2000/svg">
<g clip-path="url(#clip0)">
<path opacity="0.1" d="M88.8697 160.958C136.222 182.846 175.625 198.389 176.88 195.675C178.135 192.96 140.766 173.015 93.414 151.127C46.0622 129.239 6.6586 113.696 5.40373 116.41C4.14886 119.125 41.5179 139.07 88.8697 160.958Z" fill="#0DE6CB"/>
<g opacity="0.2">
<path opacity="0.2" d="M161.802 188.972C161.654 189.085 161.497 189.184 161.332 189.269C160.717 188.203 160.08 187.143 159.422 186.09C159.459 186.059 159.499 186.027 159.539 185.998C159.954 185.676 160.447 185.471 160.968 185.404C161.636 185.328 162.259 185.523 162.616 186C162.973 186.477 163.008 187.132 162.755 187.754C162.552 188.238 162.222 188.658 161.802 188.972V188.972Z" fill="#3F3D56"/>
<path opacity="0.2" d="M164.181 187.174C165.257 186.355 165.622 185.026 164.997 184.205C164.372 183.384 162.994 183.382 161.919 184.201C160.843 185.019 160.478 186.349 161.103 187.17C161.728 187.991 163.106 187.993 164.181 187.174Z" fill="#3F3D56"/>
<path opacity="0.2" d="M166.56 185.361C167.635 184.542 168 183.213 167.376 182.392C166.751 181.571 165.373 181.569 164.297 182.388C163.222 183.206 162.857 184.536 163.482 185.357C164.107 186.178 165.485 186.18 166.56 185.361Z" fill="#3F3D56"/>
<path opacity="0.2" d="M168.941 183.548C170.017 182.73 170.382 181.4 169.757 180.579C169.132 179.758 167.754 179.756 166.679 180.575C165.603 181.394 165.238 182.723 165.863 183.544C166.488 184.365 167.866 184.367 168.941 183.548Z" fill="#3F3D56"/>
<path opacity="0.2" d="M171.322 181.734C172.397 180.916 172.762 179.586 172.137 178.765C171.512 177.944 170.134 177.942 169.059 178.761C167.984 179.58 167.619 180.909 168.244 181.73C168.868 182.551 170.246 182.553 171.322 181.734Z" fill="#3F3D56"/>
<path opacity="0.2" d="M182.238 162.259C182.341 161.861 182.471 161.471 182.627 161.092L186.241 164.509L182.988 160.311C183.563 159.231 184.353 158.279 185.309 157.515C186.266 156.75 187.368 156.19 188.549 155.867L189.912 163.783L189.777 155.625C190.996 155.471 192.233 155.569 193.412 155.915C194.591 156.26 195.686 156.844 196.63 157.631C197.573 158.418 198.345 159.39 198.896 160.489C199.447 161.587 199.767 162.787 199.834 164.014C199.902 165.241 199.717 166.469 199.29 167.621C198.863 168.774 198.203 169.826 197.352 170.713C196.501 171.6 195.477 172.302 194.343 172.776C193.209 173.249 191.99 173.485 190.761 173.467C190.6 174.091 190.373 174.695 190.082 175.27L183.584 172.205L189.517 176.231C188.683 177.465 187.554 178.473 186.234 179.162C184.913 179.851 183.442 180.2 181.953 180.178C181.531 181.805 180.66 183.281 179.44 184.437C178.219 185.594 176.698 186.383 175.051 186.715C173.403 187.047 171.696 186.909 170.124 186.316C168.551 185.723 167.178 184.7 166.16 183.362C165.142 182.025 164.521 180.428 164.368 178.754C164.215 177.08 164.536 175.397 165.294 173.896C166.052 172.396 167.217 171.139 168.656 170.269C170.094 169.4 171.748 168.952 173.429 168.979C173.934 167.036 175.076 165.319 176.673 164.103C178.27 162.887 180.229 162.242 182.235 162.273L182.238 162.259Z" fill="#0DE6CB"/>
<path opacity="0.1" d="M187.517 178.339C185.921 179.56 183.96 180.205 181.952 180.17C181.531 181.798 180.66 183.274 179.439 184.43C178.219 185.586 176.698 186.375 175.051 186.707C173.403 187.039 171.696 186.901 170.123 186.308C168.551 185.715 167.178 184.692 166.16 183.355C165.142 182.017 164.521 180.42 164.368 178.746C164.215 177.072 164.536 175.389 165.294 173.888C166.052 172.388 167.217 171.131 168.656 170.261C170.094 169.392 171.748 168.945 173.428 168.971C173.914 167.092 188.317 177.731 187.517 178.339Z" fill="black"/>
</g>
<g opacity="0.2">
<path opacity="0.2" d="M178.879 138.658C178.663 138.867 178.43 139.058 178.183 139.229C176.98 137.639 175.746 136.064 174.479 134.503C174.533 134.445 174.591 134.386 174.65 134.33C175.249 133.73 175.999 133.302 176.82 133.089C177.877 132.828 178.915 133.024 179.603 133.725C180.291 134.426 180.456 135.467 180.175 136.513C179.943 137.331 179.495 138.072 178.879 138.658V138.658Z" fill="#3F3D56"/>
<path opacity="0.2" d="M182.343 135.278C183.908 133.748 184.229 131.538 183.061 130.343C181.893 129.148 179.678 129.419 178.113 130.95C176.548 132.48 176.226 134.69 177.394 135.885C178.562 137.08 180.778 136.808 182.343 135.278Z" fill="#3F3D56"/>
<path opacity="0.2" d="M185.807 131.892C187.372 130.362 187.693 128.152 186.525 126.957C185.357 125.762 183.142 126.034 181.577 127.564C180.012 129.095 179.69 131.304 180.858 132.499C182.026 133.695 184.242 133.423 185.807 131.892Z" fill="#3F3D56"/>
<path opacity="0.2" d="M189.269 128.504C190.834 126.973 191.156 124.764 189.988 123.569C188.82 122.373 186.604 122.645 185.039 124.176C183.474 125.706 183.153 127.915 184.321 129.111C185.489 130.306 187.704 130.034 189.269 128.504Z" fill="#3F3D56"/>
<path opacity="0.2" d="M192.732 125.12C194.297 123.589 194.619 121.38 193.451 120.185C192.283 118.989 190.067 119.261 188.502 120.792C186.937 122.322 186.616 124.532 187.784 125.727C188.952 126.922 191.167 126.65 192.732 125.12Z" fill="#3F3D56"/>
<path opacity="0.2" d="M206.392 91.6702C206.48 91.0062 206.614 90.349 206.792 89.7034L213.283 94.4764L207.227 88.3707C207.934 86.5265 209.009 84.8457 210.388 83.4313C211.766 82.0169 213.419 80.8987 215.244 80.1449L219.033 92.5694L217.192 79.4924C219.118 79.0075 221.123 78.9237 223.082 79.2462C225.042 79.5687 226.914 80.2906 228.582 81.3672C230.251 82.4437 231.68 83.852 232.782 85.5044C233.884 87.1569 234.634 89.0184 234.986 90.9733C235.339 92.9282 235.286 94.9349 234.831 96.8688C234.375 98.8026 233.528 100.622 232.34 102.215C231.153 103.808 229.651 105.14 227.928 106.128C226.204 107.116 224.297 107.74 222.323 107.96C222.187 108.993 221.94 110.009 221.588 110.989L210.538 107.36L220.872 112.646C219.778 114.797 218.165 116.64 216.18 118.011C214.195 119.381 211.9 120.235 209.502 120.494C209.148 123.191 208.042 125.734 206.311 127.833C204.58 129.931 202.294 131.5 199.715 132.361C197.135 133.222 194.366 133.339 191.723 132.7C189.08 132.061 186.671 130.691 184.77 128.747C182.869 126.803 181.554 124.362 180.974 121.705C180.395 119.048 180.574 116.281 181.492 113.72C182.41 111.16 184.029 108.909 186.165 107.224C188.301 105.54 190.867 104.491 193.57 104.197C193.992 100.972 195.486 97.9832 197.811 95.7096C200.136 93.4361 203.157 92.0102 206.389 91.6609L206.392 91.6702Z" fill="#0DE6CB"/>
<path opacity="0.1" d="M218.077 116.45C215.755 118.726 212.734 120.151 209.502 120.494C209.148 123.191 208.042 125.734 206.311 127.833C204.58 129.931 202.294 131.5 199.715 132.361C197.135 133.222 194.366 133.339 191.723 132.7C189.08 132.061 186.671 130.691 184.77 128.747C182.869 126.803 181.554 124.362 180.974 121.705C180.395 119.048 180.574 116.281 181.492 113.72C182.41 111.16 184.029 108.909 186.165 107.224C188.301 105.54 190.867 104.491 193.57 104.197C193.98 101.091 219.241 115.314 218.077 116.45Z" fill="black"/>
</g>
<g opacity="0.2">
<path opacity="0.2" d="M46.2908 93.9601C46.2256 94.3119 46.1894 94.6685 46.1827 95.0263C48.5458 95.1847 50.918 95.3831 53.2993 95.6217C53.3207 95.5296 53.3435 95.4343 53.3609 95.3384C53.5669 94.3501 53.5049 93.3248 53.1814 92.3688C52.7504 91.1458 51.8776 90.2419 50.7396 90.0199C49.6016 89.798 48.4515 90.3094 47.5977 91.2619C46.9282 92.0279 46.4769 92.9599 46.2908 93.9601V93.9601Z" fill="#3F3D56"/>
<path opacity="0.2" d="M50.034 93.6231C51.9844 94.0051 53.9715 92.2441 54.4724 89.69C54.9733 87.1358 53.7983 84.7556 51.8479 84.3736C49.8976 83.9916 47.9105 85.7525 47.4096 88.3067C46.9087 90.8608 48.0837 93.2411 50.034 93.6231Z" fill="#3F3D56"/>
<path opacity="0.2" d="M51.1412 87.9725C53.0915 88.3545 55.0786 86.5936 55.5795 84.0395C56.0804 81.4853 54.9054 79.1051 52.9551 78.7231C51.0047 78.3411 49.0176 80.102 48.5167 82.6561C48.0158 85.2103 49.1908 87.5905 51.1412 87.9725Z" fill="#3F3D56"/>
<path opacity="0.2" d="M52.2507 82.3208C54.201 82.7028 56.1881 80.9419 56.689 78.3877C57.1899 75.8335 56.0149 73.4533 54.0646 73.0713C52.1143 72.6893 50.1272 74.4502 49.6263 77.0044C49.1254 79.5585 50.3004 81.9388 52.2507 82.3208Z" fill="#3F3D56"/>
<path opacity="0.2" d="M53.3589 76.6669C55.3092 77.0489 57.2963 75.288 57.7972 72.7338C58.2981 70.1797 57.1231 67.7995 55.1728 67.4175C53.2224 67.0355 51.2353 68.7964 50.7344 71.3505C50.2336 73.9047 51.4086 76.2849 53.3589 76.6669Z" fill="#3F3D56"/>
<path opacity="0.2" d="M75.0658 35.956C75.6694 35.4364 76.236 34.8752 76.7615 34.2766L67.7846 30.9315L77.8046 32.9729C79.1789 31.0667 80.1498 28.9001 80.6577 26.6057C81.1656 24.3113 81.1998 21.9375 80.7583 19.6298L65.9221 23.9797L80.129 17.2836C79.3583 15.0473 78.1357 12.9938 76.5374 11.2508C74.939 9.50774 72.9991 8.1125 70.8383 7.15187C68.6774 6.19123 66.342 5.68574 63.9771 5.66686C61.6122 5.64797 59.2686 6.11608 57.0919 7.04207C54.9153 7.96806 52.9522 9.33212 51.3249 11.0494C49.6976 12.7666 48.4408 14.8004 47.6327 17.0241C46.8246 19.2477 46.4826 21.6138 46.6278 23.975C46.773 26.3362 47.4024 28.6421 48.4768 30.7492C47.5376 31.5587 46.6878 32.4666 45.9421 33.4572L56.7585 42.0769L44.7623 35.2481C43.3383 37.7378 42.5569 40.5429 42.4886 43.41C42.4203 46.2771 43.0673 49.1157 44.371 51.6694C41.9196 53.7809 40.1113 56.5396 39.1529 59.6301C38.1944 62.7206 38.1245 66.0182 38.9512 69.1458C39.7778 72.2735 41.4676 75.105 43.8273 77.3168C46.1871 79.5285 49.1216 81.0311 52.2955 81.6529C55.4693 82.2746 58.7543 81.9905 61.775 80.8328C64.7957 79.6752 67.4301 77.6908 69.3772 75.1065C71.3242 72.5222 72.5053 69.4423 72.7853 66.2189C73.0654 62.9955 72.4331 59.7587 70.9609 56.8785C73.8905 54.3542 75.8872 50.9183 76.6299 47.1228C77.3727 43.3274 76.8184 39.393 75.0562 35.9516L75.0658 35.956Z" fill="#0DE6CB"/>
<path opacity="0.1" d="M42.803 40.4959C42.0523 44.2908 42.6047 48.2277 44.3706 51.6683C41.9192 53.7798 40.1109 56.5385 39.1524 59.629C38.194 62.7195 38.1241 66.0171 38.9507 69.1448C39.7773 72.2724 41.4671 75.104 43.8269 77.3157C46.1867 79.5274 49.1212 81.03 52.295 81.6518C55.4689 82.2736 58.7539 81.9894 61.7746 80.8318C64.7953 79.6741 67.4297 77.6897 69.3768 75.1054C71.3238 72.5211 72.5048 69.4412 72.7849 66.2178C73.065 62.9944 72.4327 59.7576 70.9604 56.8774C73.7933 54.4439 43.1743 38.6065 42.803 40.4959Z" fill="black"/>
</g>
<path d="M214.482 95.4116L60.9554 24.4446C60.7753 24.3616 60.5807 24.315 60.3826 24.3073C60.1845 24.2996 59.9868 24.3311 59.8008 24.3999C59.6148 24.4687 59.4442 24.5735 59.2987 24.7083C59.1533 24.8431 59.0358 25.0053 58.9529 25.1855L15.4978 119.194C15.3294 119.557 15.2341 119.949 15.2172 120.349C15.2003 120.748 15.2623 121.147 15.3995 121.522C15.5368 121.898 15.7466 122.243 16.017 122.537C16.2874 122.831 16.6132 123.069 16.9757 123.238L167.723 192.92C168.086 193.087 168.478 193.181 168.878 193.196C169.277 193.211 169.675 193.148 170.05 193.009C170.425 192.87 170.769 192.659 171.063 192.387C171.356 192.116 171.593 191.789 171.76 191.426L215.215 97.417C215.384 97.0537 215.401 96.6384 215.264 96.2624C215.126 95.8864 214.845 95.5804 214.482 95.4116V95.4116Z" fill="url(#paint0_linear)"/>
<path d="M212.531 101.593L171.395 190.585C171.059 191.31 170.449 191.873 169.7 192.148C168.95 192.424 168.122 192.391 167.396 192.057L17.8713 122.939C17.1458 122.604 16.5834 121.994 16.3076 121.244C16.0319 120.493 16.0655 119.664 16.401 118.938L57.5363 29.9479L212.531 101.593Z" fill="white"/>
<path d="M214.359 97.6388L212.531 101.593L57.5363 29.948L59.3643 25.9934C59.5307 25.6334 59.8332 25.3543 60.2053 25.2173C60.5773 25.0804 60.9885 25.0969 61.3483 25.2632L213.629 95.6544C213.989 95.8207 214.268 96.1232 214.405 96.4954C214.542 96.8675 214.525 97.2788 214.359 97.6388V97.6388Z" fill="#EDEDF4"/>
<path opacity="0.8" d="M60.9456 29.0221C61.2957 29.184 61.7108 29.0312 61.8727 28.6809C62.0346 28.3306 61.8821 27.9155 61.532 27.7536C61.1819 27.5918 60.7668 27.7446 60.6049 28.0949C60.4429 28.4451 60.5955 28.8603 60.9456 29.0221Z" fill="#FA5959"/>
<path opacity="0.8" d="M62.6889 29.8279C63.039 29.9898 63.4541 29.837 63.616 29.4867C63.7779 29.1364 63.6254 28.7213 63.2753 28.5594C62.9251 28.3976 62.5101 28.5504 62.3481 28.9007C62.1862 29.251 62.3388 29.6661 62.6889 29.8279Z" fill="#FED253"/>
<path opacity="0.8" d="M64.4322 30.6338C64.7823 30.7956 65.1974 30.6428 65.3593 30.2925C65.5212 29.9423 65.3686 29.5271 65.0185 29.3653C64.6684 29.2034 64.2534 29.3562 64.0914 29.7065C63.9295 30.0568 64.0821 30.4719 64.4322 30.6338Z" fill="#8CCF4D"/>
<path d="M147.558 62.3611L147.851 61.7269L146.9 61.2873L146.607 61.9216L147.558 62.3611Z" fill="url(#paint1_linear)"/>
<path d="M104.474 61.1108L89.5764 54.2246L88.8435 55.8103L103.741 62.6964L104.474 61.1108Z" fill="#EDEDF4"/>
<path d="M171.129 97.5027L87.4509 58.8229L86.718 60.4086L170.396 99.0883L171.129 97.5027Z" fill="#EDEDF4"/>
<path d="M169.003 102.101L85.3253 63.4213L84.5924 65.0069L168.27 103.687L169.003 102.101Z" fill="#EDEDF4"/>
<path d="M166.878 106.699L83.1998 68.0196L82.4668 69.6052L166.145 108.285L166.878 106.699Z" fill="#EDEDF4"/>
<path d="M164.752 111.298L81.0742 72.618L80.3413 74.2036L164.019 112.883L164.752 111.298Z" fill="#EDEDF4"/>
<path d="M144.664 112.658L92.9992 88.7761L74.5289 128.734L126.194 152.616L144.664 112.658Z" fill="#EDEDF4"/>
<path d="M122.175 117.286C122.108 117.256 122.037 117.234 121.968 117.204C122.033 117.122 122.085 117.031 122.121 116.932C122.286 116.523 122.358 116.083 122.332 115.643C122.312 115.381 122.273 115.121 122.215 114.865C122.059 114.069 121.941 113.276 121.728 112.494C121.623 112.18 121.569 111.852 121.568 111.521C121.588 111.352 121.597 111.182 121.595 111.012C121.569 110.827 121.493 110.653 121.375 110.509C121.257 110.364 121.102 110.255 120.926 110.193C120.568 110.076 120.18 110.097 119.837 110.252C119.638 110.333 119.427 110.503 119.463 110.716C119.499 110.929 119.73 111.061 119.662 111.245C119.618 111.34 119.547 111.495 119.436 111.481C119.243 111.447 119.047 111.443 118.853 111.469C118.756 111.484 118.664 111.521 118.584 111.578C118.504 111.634 118.439 111.709 118.392 111.795C118.648 111.963 118.984 111.839 119.292 111.826C119.67 111.837 120.03 111.988 120.304 112.249C120.413 112.34 120.503 112.453 120.566 112.581C120.615 112.709 120.643 112.844 120.65 112.981C120.752 113.564 120.704 114.163 120.511 114.722L120.239 115.678C120.025 115.599 119.807 115.531 119.586 115.476C119.001 115.304 118.46 115.008 118 114.608C117.519 114.193 117.097 113.648 116.465 113.514C116.17 113.449 115.857 113.485 115.566 113.402C115.345 113.325 115.137 113.215 114.948 113.076L114.544 112.805C114.547 112.762 114.553 112.719 114.56 112.675C114.617 112.316 114.728 111.967 114.889 111.64C115.18 111.756 115.495 111.799 115.807 111.765C116.118 111.731 116.417 111.622 116.677 111.446C116.936 111.27 117.149 111.033 117.296 110.756C117.443 110.479 117.521 110.17 117.521 109.856C117.817 109.833 118.101 109.73 118.342 109.557L118.241 109.485L118.419 109.375C118.401 109.348 118.39 109.318 118.386 109.287C118.382 109.255 118.385 109.223 118.395 109.193C118.406 109.163 118.423 109.136 118.445 109.113C118.468 109.091 118.495 109.074 118.526 109.064C118.455 108.974 118.363 108.903 118.257 108.859C118.319 108.813 118.3 108.712 118.245 108.661C118.183 108.616 118.116 108.58 118.044 108.553C117.947 108.499 117.858 108.43 117.781 108.349C117.212 107.803 116.573 107.259 115.793 107.135C115.446 107.09 115.093 107.108 114.751 107.189C114.444 107.213 114.157 107.354 113.951 107.583C113.744 107.812 113.633 108.112 113.64 108.42C113.624 108.728 113.574 109.034 113.49 109.331C113.38 109.593 113.232 109.838 113.049 110.056C113.179 110.172 113.317 110.278 113.462 110.373C113.217 110.672 112.914 110.92 112.571 111.1C112.415 111.178 112.255 111.246 112.092 111.303L112.073 111.295C111.731 111.208 111.395 111.101 111.067 110.972C110.731 110.817 110.46 110.538 110.115 110.407C109.907 110.338 109.691 110.292 109.473 110.27C108.485 110.123 107.525 109.826 106.627 109.389L106.513 109.35L106.913 108.75C107.214 108.241 107.64 107.817 108.149 107.516C108.258 107.433 108.379 107.367 108.509 107.321C108.647 107.287 108.792 107.282 108.932 107.307C109.308 107.345 109.656 107.522 109.909 107.802C110.102 108.04 110.222 108.374 110.517 108.468C110.552 108.377 110.566 108.279 110.557 108.181C110.548 108.083 110.517 107.989 110.465 107.906C110.36 107.741 110.229 107.594 110.079 107.469C110.001 107.396 110.06 107.235 110.112 107.144C110.208 106.973 110.478 107.051 110.645 106.951C110.812 106.852 110.821 106.571 110.756 106.366C110.651 106.005 110.415 105.696 110.094 105.5C109.933 105.406 109.75 105.359 109.563 105.362C109.377 105.366 109.195 105.421 109.038 105.522C108.906 105.63 108.782 105.746 108.667 105.871C108.414 106.084 108.129 106.256 107.822 106.38C107.086 106.723 106.407 107.148 105.701 107.545C105.469 107.667 105.246 107.805 105.033 107.958C104.681 108.224 104.392 108.565 104.186 108.956C104.135 109.048 104.098 109.147 104.077 109.25C104.057 109.268 104.039 109.289 104.027 109.313C104.012 109.359 104.006 109.407 104.01 109.455C104.013 109.503 104.026 109.55 104.048 109.593C104.178 109.949 104.316 110.319 104.594 110.574C104.775 110.716 104.965 110.847 105.162 110.966C105.621 111.288 105.948 111.791 106.457 112.024C106.808 112.186 107.218 112.206 107.54 112.415C107.986 112.7 108.149 113.245 108.267 113.756C108.379 114.164 108.408 114.59 108.351 115.009C108.259 115.504 107.959 115.969 108.015 116.468C108.038 116.576 108.043 116.686 108.03 116.795C107.966 116.947 107.864 117.08 107.734 117.181C107.251 117.703 107.385 118.56 107.046 119.173C106.881 119.472 106.61 119.7 106.453 120.003C106.245 120.39 106.201 120.91 105.826 121.139C105.993 121.132 106.157 121.133 106.322 121.142C104.755 122.786 103.222 124.52 102.32 126.593C101.74 127.939 101.345 129.535 100.076 130.274C99.907 130.354 99.7526 130.462 99.619 130.592C99.4598 130.778 99.4152 131.033 99.3537 131.27C99.055 132.287 98.1083 132.986 97.6271 133.936C97.4856 134.232 97.3672 134.538 97.273 134.852L96.7168 136.546C96.5093 136.5 96.2937 136.506 96.0892 136.564C95.8194 136.632 95.5264 136.812 95.5084 137.092C95.4942 137.319 95.6704 137.512 95.8497 137.652C96.0454 137.771 96.2081 137.937 96.323 138.135C96.3495 138.22 96.3807 138.304 96.4165 138.386C96.5043 138.503 96.627 138.59 96.7671 138.634C97.0139 138.737 97.2564 138.824 97.5191 138.905C97.5714 138.927 97.6285 138.934 97.6845 138.926C97.7283 138.907 97.7678 138.88 97.8006 138.845C97.8334 138.811 97.8588 138.77 97.8753 138.725C98.0046 138.492 98.1067 138.245 98.1794 137.988C98.1912 137.938 98.199 137.888 98.2076 137.836C98.385 137.67 98.5425 137.485 98.6767 137.283C98.8724 136.988 99.0335 136.661 99.2044 136.345C99.6345 135.539 100.125 134.769 100.632 134.007L101.278 133.024C101.488 132.699 101.699 132.375 101.918 132.055C103.081 130.31 104.394 128.67 105.842 127.153C106.155 126.83 106.594 126.484 107.006 126.661L107.029 127.249C107.07 127.992 106.958 128.742 106.909 129.48C106.846 130.45 106.294 131.361 106.361 132.331C106.371 132.491 106.404 132.655 106.394 132.814C106.373 133.056 106.316 133.293 106.225 133.519L105.186 136.503C104.72 137.844 104.248 139.225 104.29 140.643C104.292 140.734 104.301 140.825 104.319 140.915C104.212 141.098 104.12 141.29 104.044 141.488C104.019 141.518 104.002 141.553 103.993 141.591C103.985 141.629 103.985 141.668 103.994 141.705C104.003 141.743 104.021 141.778 104.046 141.808C104.071 141.837 104.102 141.861 104.138 141.876C104.362 142.018 104.589 142.148 104.83 142.271C104.954 142.349 105.1 142.386 105.247 142.377C105.333 142.353 105.418 142.322 105.5 142.286C105.725 142.245 105.956 142.261 106.173 142.334C106.395 142.381 106.656 142.39 106.82 142.231C107.024 142.036 106.969 141.697 106.846 141.446C106.752 141.233 106.598 141.052 106.403 140.924C106.315 140.889 106.232 140.842 106.156 140.784C106.224 140.689 106.28 140.585 106.322 140.476C106.359 140.342 106.412 140.213 106.48 140.091C106.571 139.979 106.672 139.875 106.782 139.78C107.223 139.303 107.099 138.553 107.228 137.916C107.399 137.067 108.04 136.392 108.354 135.584C108.847 134.317 108.523 132.764 109.312 131.657C109.942 130.771 110.248 129.701 110.525 128.65L111.563 124.74C111.654 124.425 111.71 124.102 111.729 123.776C111.856 123.81 111.986 123.832 112.117 123.843C112.455 123.53 112.625 123.091 112.769 122.653C112.914 122.216 112.99 121.759 113.126 121.321C113.231 120.967 113.358 120.62 113.506 120.282C113.641 119.944 113.818 119.623 114.031 119.328C114.236 119.077 114.463 118.845 114.711 118.636C115.374 118.008 116.088 117.437 116.846 116.929C117.521 117.179 118.178 117.415 118.852 117.663C119.011 117.728 119.175 117.779 119.343 117.815C119.568 117.838 119.791 117.873 120.013 117.919C120.089 117.949 120.169 117.969 120.251 117.977C120.424 117.978 120.595 117.836 120.755 117.902C120.81 117.937 120.87 117.965 120.933 117.984C121.013 117.994 121.083 117.934 121.164 117.899C121.313 117.835 121.483 117.887 121.645 117.875C121.788 117.854 121.919 117.784 122.016 117.676C122.113 117.569 122.169 117.431 122.175 117.286V117.286Z" fill="url(#paint2_linear)"/>
<path d="M114.732 111.741C115.695 112.186 116.836 111.766 117.282 110.802C117.727 109.839 117.307 108.698 116.345 108.252C115.382 107.807 114.24 108.228 113.795 109.191C113.35 110.154 113.769 111.296 114.732 111.741Z" fill="#A1616A"/>
<path d="M112.522 111.237C112.243 111.374 111.951 111.483 111.65 111.563C112.392 112.648 113.517 113.411 114.798 113.7C114.81 113.561 114.663 113.472 114.582 113.361C114.486 113.194 114.46 112.997 114.509 112.811C114.584 112.339 114.752 111.886 115.002 111.479C115.071 111.384 115.121 111.276 115.148 111.161C115.16 110.976 115.103 110.793 114.987 110.648C114.812 110.38 114.6 110.137 114.36 109.925C114.111 109.706 113.964 109.59 113.798 109.921C113.523 110.484 113.077 110.945 112.522 111.237V111.237Z" fill="#A1616A"/>
<path d="M120.104 116.073L120.447 114.865C120.523 114.626 120.579 114.38 120.615 114.131C120.64 113.798 120.63 113.463 120.585 113.132C120.577 112.995 120.549 112.86 120.5 112.733C120.436 112.605 120.347 112.493 120.237 112.402C119.965 112.141 119.605 111.991 119.228 111.981C118.923 111.987 118.591 112.11 118.332 111.942C118.378 111.856 118.444 111.782 118.524 111.726C118.604 111.669 118.696 111.633 118.793 111.619C118.984 111.591 119.177 111.594 119.367 111.626C119.47 111.639 119.557 111.49 119.593 111.391C119.66 111.209 119.425 111.054 119.392 110.864C119.359 110.673 119.567 110.485 119.764 110.401C120.106 110.248 120.493 110.228 120.849 110.346C121.025 110.407 121.181 110.515 121.299 110.659C121.417 110.803 121.493 110.977 121.518 111.162C121.522 111.331 121.513 111.501 121.493 111.67C121.496 111.999 121.55 112.326 121.653 112.638C121.87 113.418 121.988 114.208 122.143 114.999C122.199 115.254 122.239 115.513 122.262 115.774C122.289 116.212 122.217 116.651 122.053 117.059C122.01 117.188 121.935 117.304 121.834 117.395C121.747 117.454 121.646 117.491 121.54 117.5C121.435 117.509 121.329 117.491 121.233 117.447C121.04 117.353 120.865 117.225 120.716 117.07L120.133 116.518C120.058 116.46 120 116.382 119.968 116.293C119.959 116.246 119.968 116.198 119.993 116.157C120.019 116.116 120.058 116.086 120.104 116.073V116.073Z" fill="#A1616A"/>
<path d="M106.177 109.938L106.874 108.893C107.008 108.681 107.159 108.479 107.326 108.29C107.563 108.055 107.825 107.845 108.107 107.666C108.214 107.582 108.335 107.517 108.463 107.473C108.601 107.438 108.745 107.433 108.885 107.458C109.261 107.497 109.609 107.673 109.862 107.954C110.055 108.19 110.176 108.523 110.472 108.611C110.508 108.52 110.521 108.422 110.512 108.324C110.503 108.227 110.472 108.133 110.42 108.05C110.317 107.887 110.19 107.742 110.043 107.618C109.966 107.548 110.023 107.386 110.075 107.294C110.171 107.125 110.439 107.202 110.607 107.105C110.775 107.008 110.782 106.726 110.716 106.522C110.612 106.162 110.376 105.854 110.056 105.659C109.895 105.565 109.712 105.516 109.526 105.52C109.339 105.523 109.158 105.578 109.001 105.678C108.87 105.785 108.747 105.902 108.632 106.027C108.379 106.238 108.095 106.408 107.79 106.532C107.056 106.872 106.378 107.294 105.673 107.688C105.442 107.81 105.22 107.948 105.007 108.1C104.657 108.365 104.369 108.703 104.164 109.092C104.094 109.209 104.055 109.342 104.051 109.478C104.062 109.585 104.102 109.686 104.164 109.773C104.227 109.86 104.311 109.929 104.409 109.973C104.605 110.059 104.815 110.109 105.029 110.121L105.826 110.214C105.919 110.235 106.015 110.228 106.103 110.194C106.146 110.169 106.178 110.129 106.192 110.081C106.206 110.033 106.201 109.982 106.177 109.938Z" fill="#A1616A"/>
<path d="M106.849 141.44C106.973 141.689 107.026 142.027 106.825 142.221C106.66 142.378 106.401 142.368 106.178 142.322C105.961 142.251 105.731 142.234 105.506 142.274C105.425 142.307 105.342 142.335 105.258 142.357C105.111 142.367 104.965 142.33 104.841 142.251C104.605 142.13 104.38 142.001 104.149 141.856C104.098 141.83 104.056 141.791 104.026 141.743C104.011 141.698 104.007 141.651 104.012 141.604C104.017 141.557 104.032 141.511 104.056 141.47C104.148 141.221 104.269 140.984 104.417 140.764C104.568 140.543 104.791 140.383 105.048 140.311C105.298 140.253 106.051 140.087 106.135 140.455C106.157 140.554 106.088 140.643 106.138 140.74C106.188 140.836 106.325 140.859 106.409 140.911C106.603 141.041 106.756 141.225 106.849 141.44Z" fill="#3F3D56"/>
<path d="M96.1027 136.572C95.8329 136.64 95.5407 136.819 95.5234 137.097C95.5092 137.324 95.6838 137.516 95.8638 137.655C96.0588 137.773 96.2212 137.938 96.3362 138.135C96.3622 138.221 96.394 138.305 96.4314 138.387C96.5189 138.504 96.641 138.591 96.7804 138.635C97.0257 138.737 97.2697 138.824 97.5308 138.905C97.583 138.926 97.6402 138.934 97.6962 138.925C97.7401 138.907 97.7797 138.88 97.8125 138.846C97.8452 138.812 97.8704 138.771 97.8863 138.726C98.0149 138.495 98.1162 138.249 98.1882 137.994C98.2601 137.736 98.2378 137.461 98.1255 137.219C98.0092 136.992 97.6471 136.31 97.311 136.484C97.2218 136.531 97.197 136.643 97.0907 136.665C96.9843 136.687 96.8801 136.601 96.7847 136.57C96.5617 136.507 96.3253 136.507 96.1027 136.572Z" fill="#3F3D56"/>
<path d="M106.617 120.899C104.95 122.63 103.27 124.442 102.313 126.653C101.736 127.993 101.344 129.582 100.079 130.316C99.9107 130.396 99.7566 130.503 99.6233 130.633C99.4649 130.817 99.421 131.07 99.3579 131.307C99.0608 132.324 98.1194 133.017 97.6388 133.961C97.498 134.255 97.3803 134.559 97.2868 134.872L96.7021 136.657C96.5004 137.268 97.1385 137.852 97.678 138.199C98.099 138.001 98.4525 137.683 98.6947 137.285C98.8904 136.991 99.0501 136.666 99.2179 136.353C99.6481 135.552 100.145 134.788 100.64 134.026L101.284 133.048C101.495 132.726 101.704 132.403 101.922 132.084C103.081 130.354 104.388 128.729 105.828 127.225C106.141 126.902 106.578 126.56 106.989 126.736L107.016 127.314C107.06 128.052 106.946 128.801 106.899 129.535C106.837 130.501 106.287 131.405 106.356 132.375C106.367 132.534 106.399 132.697 106.389 132.854C106.369 133.092 106.314 133.326 106.225 133.548L105.195 136.513C104.732 137.848 104.261 139.221 104.306 140.634C104.3 140.797 104.335 140.959 104.409 141.105C104.571 141.372 104.936 141.443 105.242 141.384C105.486 141.334 105.713 141.224 105.903 141.064C106.094 140.904 106.241 140.699 106.331 140.467C106.37 140.334 106.423 140.206 106.489 140.084C106.581 139.973 106.682 139.87 106.79 139.775C107.232 139.301 107.106 138.554 107.232 137.92C107.402 137.074 108.04 136.404 108.354 135.6C108.845 134.338 108.52 132.79 109.305 131.688C109.933 130.807 110.237 129.742 110.513 128.696L111.535 124.8C111.696 124.185 111.84 123.475 111.462 122.963C111.233 122.7 110.94 122.498 110.612 122.378C109.301 121.772 107.965 121.375 106.617 120.899Z" fill="#3F3D56"/>
<path d="M122.115 117.415C121.632 117.248 121.212 116.937 120.912 116.524C120.805 116.35 120.681 116.188 120.541 116.04C120.271 115.791 119.881 115.72 119.525 115.615C118.942 115.442 118.403 115.147 117.943 114.749C117.461 114.334 117.039 113.791 116.409 113.655C116.114 113.59 115.804 113.626 115.513 113.543C115.291 113.467 115.083 113.357 114.894 113.217L113.218 112.099C112.848 111.829 112.446 111.607 112.02 111.438C111.679 111.351 111.343 111.244 111.014 111.117C110.68 110.963 110.409 110.683 110.064 110.551C109.856 110.482 109.641 110.436 109.423 110.414C108.438 110.267 107.481 109.97 106.585 109.535C105.842 109.249 105.036 109.169 104.251 109.303C104.199 109.307 104.149 109.322 104.104 109.348C104.059 109.373 104.02 109.408 103.991 109.451C103.976 109.496 103.971 109.544 103.975 109.591C103.979 109.639 103.992 109.685 104.015 109.727C104.143 110.083 104.282 110.451 104.56 110.707C104.741 110.848 104.93 110.978 105.127 111.096C105.583 111.418 105.912 111.919 106.419 112.153C106.769 112.315 107.178 112.334 107.5 112.543C107.946 112.828 108.109 113.369 108.229 113.879C108.341 114.285 108.37 114.71 108.316 115.127C108.223 115.62 107.925 116.082 107.981 116.58C108.004 116.686 108.009 116.796 107.997 116.904C107.933 117.056 107.831 117.188 107.701 117.289C107.219 117.807 107.358 118.655 107.013 119.281C106.85 119.576 106.579 119.805 106.423 120.105C106.217 120.492 106.172 121.009 105.798 121.236C106.854 121.2 107.901 121.432 108.843 121.91C109 121.988 109.152 122.076 109.298 122.174C109.574 122.378 109.837 122.601 110.082 122.841C110.647 123.358 111.306 123.846 112.071 123.907C112.407 123.595 112.577 123.157 112.718 122.722C112.86 122.287 112.946 121.834 113.074 121.395C113.178 121.043 113.305 120.698 113.452 120.361C113.587 120.024 113.762 119.706 113.975 119.412C114.179 119.162 114.406 118.932 114.653 118.724C115.315 118.096 116.029 117.524 116.788 117.017C117.462 117.265 118.117 117.501 118.79 117.75C118.949 117.813 119.113 117.864 119.28 117.902C119.504 117.925 119.727 117.96 119.947 118.006C120.024 118.036 120.104 118.055 120.187 118.063C120.359 118.064 120.532 117.924 120.689 117.991C120.745 118.025 120.804 118.053 120.867 118.073C120.946 118.085 121.015 118.022 121.098 117.988C121.247 117.924 121.417 117.976 121.578 117.965C121.717 117.948 121.846 117.884 121.943 117.784C122.041 117.684 122.102 117.554 122.115 117.415V117.415Z" fill="#0DE6CB"/>
<path d="M115.55 110.766C115.582 110.829 115.633 110.881 115.695 110.915C115.758 110.949 115.829 110.962 115.9 110.955C115.999 110.921 116.085 110.857 116.146 110.772C116.294 110.6 116.433 110.42 116.562 110.233C116.612 110.149 116.679 110.076 116.758 110.018C116.956 109.893 117.21 110 117.443 110.009C117.744 109.99 118.034 109.887 118.279 109.71L118.18 109.638L118.356 109.527C118.339 109.501 118.327 109.471 118.323 109.439C118.319 109.408 118.323 109.376 118.333 109.347C118.343 109.317 118.36 109.29 118.383 109.268C118.406 109.246 118.433 109.23 118.463 109.22C118.394 109.128 118.3 109.057 118.194 109.013C118.255 108.968 118.236 108.867 118.181 108.815C118.121 108.77 118.053 108.734 117.982 108.709C117.885 108.654 117.796 108.585 117.719 108.503C117.151 107.959 116.514 107.417 115.736 107.294C115.388 107.247 115.035 107.265 114.694 107.345C114.389 107.369 114.105 107.509 113.9 107.736C113.694 107.963 113.583 108.26 113.589 108.566C113.574 108.872 113.524 109.175 113.441 109.47C113.332 109.732 113.184 109.977 113.002 110.195C113.162 110.342 113.339 110.469 113.529 110.574C113.72 110.681 113.942 110.716 114.157 110.672C114.378 110.609 114.564 110.439 114.774 110.328C114.858 110.276 114.955 110.246 115.055 110.24C115.154 110.235 115.253 110.255 115.343 110.299C115.506 110.407 115.455 110.601 115.55 110.766Z" fill="#3F3D56"/>
<path d="M97.1229 138.597L95.2671 137.739C95.2071 137.725 95.144 137.732 95.0884 137.758C95.0329 137.785 94.9884 137.831 94.9625 137.887C94.9366 137.943 94.9309 138.006 94.9463 138.066C94.9618 138.126 94.9974 138.178 95.0473 138.215L95.4181 138.386L93.9617 141.537L87.6114 138.601C87.6081 138.57 87.5971 138.54 87.5794 138.513C87.5618 138.487 87.5379 138.465 87.5099 138.451L85.6557 137.593C85.5957 137.579 85.5325 137.586 85.477 137.613C85.4215 137.64 85.377 137.685 85.3511 137.741C85.3252 137.797 85.3194 137.861 85.3349 137.92C85.3503 137.98 85.386 138.033 85.4358 138.069L85.8067 138.241L84.3107 141.477L78.1791 138.642C78.194 138.596 78.1927 138.546 78.1754 138.5C78.1581 138.454 78.1259 138.416 78.0839 138.391L76.2313 137.534C76.1706 137.517 76.106 137.523 76.0488 137.549C75.9917 137.576 75.9458 137.622 75.9194 137.679C75.893 137.736 75.8877 137.801 75.9046 137.861C75.9214 137.922 75.9593 137.975 76.0114 138.01L76.1968 138.096L74.6576 141.425L68.4246 138.544C68.4074 138.52 68.3845 138.501 68.358 138.489L66.5038 137.631C66.4438 137.617 66.3806 137.624 66.3251 137.651C66.2696 137.678 66.2251 137.723 66.1992 137.779C66.1733 137.835 66.1675 137.899 66.183 137.958C66.1984 138.018 66.2341 138.071 66.2839 138.107L66.4693 138.193L65.0034 141.364L58.8496 138.52C58.8507 138.482 58.8411 138.445 58.8218 138.413C58.8026 138.381 58.7745 138.355 58.741 138.338L56.8868 137.481C56.8267 137.467 56.7636 137.474 56.7081 137.501C56.6525 137.528 56.608 137.573 56.5821 137.629C56.5562 137.685 56.5505 137.748 56.566 137.808C56.5814 137.868 56.6171 137.921 56.6669 137.957L56.8523 138.043L55.2288 141.555L97.1517 160.934L105.654 142.54L97.1229 138.597Z" fill="#3F3D56"/>
<path opacity="0.1" d="M65.5132 50.1449C65.4418 49.8185 65.3368 49.5004 65.1999 49.1957C65.1628 49.1129 65.1453 49.0226 65.149 48.9319C65.1526 48.8411 65.1773 48.7525 65.2209 48.6729C65.2646 48.5933 65.3262 48.5249 65.4007 48.4732C65.4753 48.4214 65.5609 48.3876 65.6507 48.3745C65.7495 48.3605 65.8481 48.3426 65.949 48.3199C67.1185 48.0619 67.9642 47.3809 67.8362 46.7964C67.7082 46.2119 66.6549 45.9482 65.4854 46.2062C65.351 46.2344 65.2183 46.27 65.0879 46.3131C65.0017 46.3397 64.9105 46.346 64.8215 46.3316C64.7325 46.3171 64.6481 46.2823 64.5747 46.2298C64.5014 46.1773 64.4413 46.1085 64.3989 46.0288C64.3566 45.9492 64.3333 45.8608 64.3307 45.7706C64.3194 45.476 64.2817 45.1829 64.2181 44.8949C63.917 43.5241 63.1204 42.5343 62.4375 42.6843C61.7546 42.8344 61.4422 44.0678 61.7402 45.4411C61.7986 45.7095 61.8798 45.9723 61.9829 46.2268C62.016 46.3132 62.0283 46.4061 62.0189 46.4981C62.0095 46.59 61.9786 46.6785 61.9288 46.7564C61.8789 46.8343 61.8115 46.8994 61.7319 46.9464C61.6523 46.9935 61.5628 47.0212 61.4706 47.0273C60.2683 47.1316 59.3521 47.703 59.4038 48.2985C59.4556 48.894 60.4684 49.291 61.6621 49.1846C61.8474 49.1672 62.0315 49.1386 62.2134 49.0988C62.2991 49.0798 62.388 49.0802 62.4735 49.1C62.5591 49.1197 62.6391 49.1583 62.7079 49.213C62.7766 49.2676 62.8323 49.3369 62.8708 49.4158C62.9094 49.4947 62.9298 49.5812 62.9307 49.669C62.9294 50.0096 62.9659 50.3492 63.0397 50.6816C63.3393 52.0517 64.1374 53.0422 64.8203 52.8922C65.5032 52.7422 65.812 51.5166 65.5132 50.1449Z" fill="#0DE6CB"/>
<path opacity="0.1" d="M165.102 129.436C165.394 129.273 165.668 129.081 165.92 128.861C165.988 128.801 166.069 128.758 166.157 128.735C166.244 128.712 166.336 128.709 166.425 128.728C166.513 128.747 166.596 128.786 166.667 128.842C166.738 128.898 166.795 128.97 166.834 129.052C166.877 129.142 166.924 129.231 166.973 129.321C167.561 130.362 168.461 130.971 168.979 130.681C169.498 130.392 169.447 129.304 168.86 128.259C168.789 128.135 168.715 128.018 168.638 127.908C168.587 127.833 168.555 127.748 168.543 127.658C168.531 127.568 168.541 127.477 168.57 127.392C168.599 127.306 168.648 127.229 168.712 127.165C168.776 127.102 168.854 127.054 168.94 127.026C169.218 126.93 169.487 126.808 169.743 126.662C170.966 125.975 171.68 124.923 171.335 124.319C170.991 123.715 169.725 123.767 168.498 124.46C168.26 124.593 168.033 124.746 167.82 124.917C167.747 124.974 167.662 125.013 167.571 125.031C167.481 125.048 167.387 125.045 167.298 125.02C167.209 124.995 167.127 124.95 167.059 124.887C166.991 124.825 166.938 124.748 166.905 124.661V124.661C166.457 123.551 165.636 122.83 165.089 123.052C164.542 123.274 164.452 124.36 164.903 125.468C164.974 125.639 165.056 125.805 165.148 125.966C165.191 126.042 165.216 126.128 165.222 126.215C165.228 126.303 165.214 126.391 165.182 126.472C165.15 126.554 165.099 126.627 165.035 126.687C164.971 126.747 164.894 126.792 164.81 126.818C164.481 126.919 164.164 127.056 163.865 127.226C162.642 127.913 161.929 128.965 162.274 129.57C162.62 130.174 163.878 130.124 165.102 129.436Z" fill="#0DE6CB"/>
<path d="M141.171 183.337C144.13 184.704 146.741 185.351 147.005 184.782C147.268 184.213 145.083 182.643 142.124 181.275C139.166 179.908 136.554 179.261 136.291 179.83C136.028 180.399 138.213 181.969 141.171 183.337Z" fill="#0DE6CB"/>
<path d="M141.384 182.644C141.729 182.803 142.177 182.567 142.386 182.116C142.594 181.665 142.484 181.17 142.139 181.011C141.794 180.851 141.346 181.088 141.137 181.539C140.929 181.99 141.039 182.485 141.384 182.644Z" fill="#3F3D56"/>
<path d="M141.846 181.645C142.191 181.805 142.639 181.568 142.848 181.117C143.056 180.666 142.946 180.171 142.601 180.012C142.256 179.852 141.807 180.089 141.599 180.54C141.39 180.991 141.501 181.486 141.846 181.645Z" fill="#3F3D56"/>
<path d="M142.307 180.648C142.652 180.807 143.1 180.571 143.309 180.12C143.517 179.669 143.407 179.174 143.062 179.015C142.717 178.855 142.268 179.091 142.06 179.542C141.851 179.993 141.962 180.488 142.307 180.648Z" fill="#3F3D56"/>
<path d="M142.769 179.649C143.113 179.808 143.562 179.572 143.77 179.121C143.979 178.67 143.868 178.175 143.523 178.016C143.179 177.856 142.73 178.093 142.522 178.544C142.313 178.995 142.424 179.489 142.769 179.649Z" fill="#3F3D56"/>
<path d="M143.23 178.65C143.575 178.809 144.024 178.573 144.232 178.122C144.441 177.671 144.33 177.176 143.985 177.017C143.64 176.857 143.192 177.094 142.983 177.545C142.775 177.996 142.885 178.49 143.23 178.65Z" fill="#3F3D56"/>
<path d="M143.691 177.652C144.036 177.812 144.485 177.576 144.693 177.125C144.902 176.674 144.791 176.179 144.446 176.019C144.101 175.86 143.653 176.096 143.444 176.547C143.236 176.998 143.347 177.493 143.691 177.652Z" fill="#3F3D56"/>
<path d="M144.153 176.654C144.498 176.813 144.947 176.577 145.155 176.126C145.363 175.675 145.253 175.18 144.908 175.02C144.563 174.861 144.115 175.097 143.906 175.548C143.698 175.999 143.808 176.494 144.153 176.654Z" fill="#3F3D56"/>
<path d="M150.023 170.084C150.158 170.014 150.288 169.935 150.413 169.848L148.9 168.822L150.666 169.655C151.007 169.364 151.286 169.006 151.484 168.603C151.682 168.2 151.796 167.761 151.818 167.312L148.87 167.447L151.809 166.849C151.766 166.4 151.632 165.964 151.414 165.57C151.196 165.175 150.899 164.829 150.542 164.554C150.185 164.279 149.775 164.08 149.338 163.97C148.901 163.86 148.446 163.841 148.001 163.914C147.556 163.987 147.131 164.151 146.752 164.395C146.372 164.639 146.047 164.959 145.797 165.334C145.546 165.709 145.375 166.131 145.294 166.575C145.214 167.018 145.225 167.474 145.327 167.913C145.117 168.021 144.918 168.151 144.735 168.301L146.35 170.395L144.432 168.585C144.055 168.981 143.783 169.466 143.639 169.994C143.496 170.522 143.486 171.078 143.61 171.611C143.06 171.892 142.6 172.322 142.282 172.852C141.965 173.382 141.803 173.99 141.815 174.608C141.826 175.226 142.012 175.827 142.349 176.345C142.687 176.862 143.163 177.273 143.724 177.533C144.284 177.792 144.906 177.888 145.519 177.81C146.132 177.732 146.71 177.483 147.188 177.092C147.667 176.701 148.025 176.183 148.223 175.598C148.421 175.012 148.45 174.383 148.308 173.782C148.965 173.446 149.491 172.9 149.801 172.229C150.11 171.559 150.186 170.804 150.016 170.086L150.023 170.084Z" fill="#0DE6CB"/>
<path opacity="0.1" d="M143.833 169.464C143.522 170.133 143.444 170.888 143.613 171.606C143.062 171.887 142.602 172.317 142.285 172.847C141.967 173.377 141.805 173.985 141.817 174.603C141.829 175.221 142.014 175.823 142.352 176.34C142.689 176.857 143.165 177.269 143.726 177.528C144.287 177.787 144.909 177.883 145.521 177.805C146.134 177.727 146.713 177.478 147.191 177.087C147.669 176.696 148.027 176.178 148.225 175.593C148.423 175.008 148.453 174.378 148.31 173.777C148.949 173.455 143.988 169.13 143.833 169.464Z" fill="black"/>
<path d="M43.6946 137.892C45.0338 138.511 46.2159 138.804 46.3349 138.546C46.4539 138.289 45.4648 137.578 44.1256 136.959C42.7864 136.34 41.6044 136.047 41.4854 136.305C41.3663 136.562 42.3555 137.273 43.6946 137.892Z" fill="#0DE6CB"/>
<path d="M43.7913 137.578C43.9471 137.65 44.1499 137.543 44.2442 137.339C44.3385 137.135 44.2887 136.912 44.1329 136.84C43.9771 136.768 43.7743 136.875 43.68 137.079C43.5857 137.283 43.6355 137.506 43.7913 137.578Z" fill="#3F3D56"/>
<path d="M44.0002 137.127C44.156 137.199 44.3588 137.092 44.4531 136.887C44.5474 136.683 44.4976 136.46 44.3418 136.388C44.186 136.316 43.9832 136.423 43.8889 136.627C43.7946 136.831 43.8444 137.055 44.0002 137.127Z" fill="#3F3D56"/>
<path d="M44.2091 136.675C44.3649 136.747 44.5677 136.64 44.662 136.436C44.7563 136.232 44.7065 136.008 44.5507 135.936C44.3949 135.864 44.1921 135.971 44.0978 136.175C44.0035 136.379 44.0533 136.603 44.2091 136.675Z" fill="#3F3D56"/>
<path d="M44.418 136.223C44.5738 136.295 44.7766 136.188 44.8709 135.984C44.9652 135.78 44.9154 135.556 44.7596 135.484C44.6038 135.412 44.401 135.519 44.3067 135.723C44.2124 135.927 44.2622 136.151 44.418 136.223Z" fill="#3F3D56"/>
<path d="M44.6269 135.771C44.7827 135.843 44.9854 135.736 45.0798 135.532C45.1741 135.328 45.1242 135.104 44.9684 135.032C44.8126 134.96 44.6099 135.067 44.5156 135.271C44.4212 135.475 44.4711 135.699 44.6269 135.771Z" fill="#3F3D56"/>
<path d="M44.8358 135.319C44.9916 135.391 45.1943 135.284 45.2886 135.08C45.383 134.876 45.3331 134.652 45.1773 134.58C45.0215 134.508 44.8188 134.615 44.7245 134.819C44.6301 135.023 44.68 135.247 44.8358 135.319Z" fill="#3F3D56"/>
<path d="M45.0447 134.867C45.2005 134.939 45.4032 134.832 45.4976 134.628C45.5919 134.424 45.542 134.2 45.3862 134.128C45.2305 134.056 45.0277 134.163 44.9334 134.367C44.8391 134.571 44.8889 134.795 45.0447 134.867Z" fill="#3F3D56"/>
<path d="M47.701 131.892C47.7634 131.86 47.8234 131.823 47.8804 131.782L47.1952 131.318L47.9971 131.688C48.1607 131.548 48.2922 131.375 48.3824 131.179C48.4629 131.006 48.5089 130.819 48.5179 130.628L47.1838 130.689L48.5131 130.418C48.4937 130.215 48.4328 130.018 48.3341 129.839C48.2354 129.661 48.1011 129.504 47.9395 129.38C47.7779 129.255 47.5924 129.165 47.3946 129.115C47.1968 129.066 46.9908 129.057 46.7895 129.09C46.5882 129.123 46.3958 129.197 46.2242 129.308C46.0527 129.418 45.9056 129.563 45.7922 129.733C45.6788 129.902 45.6015 130.094 45.565 130.294C45.5285 130.495 45.5337 130.701 45.5801 130.9C45.4835 130.948 45.3923 131.005 45.308 131.073L46.0384 132.018L45.1712 131.198C45.0012 131.378 44.8785 131.597 44.8143 131.836C44.7501 132.075 44.7465 132.327 44.8036 132.568C44.5539 132.694 44.3449 132.889 44.2006 133.129C44.0563 133.369 43.9825 133.645 43.9876 133.925C43.9927 134.205 44.0766 134.478 44.2295 134.713C44.3825 134.947 44.5984 135.134 44.8526 135.251C45.1068 135.369 45.3889 135.412 45.6667 135.377C45.9444 135.342 46.2067 135.229 46.4233 135.051C46.6399 134.873 46.8023 134.639 46.8917 134.373C46.9811 134.108 46.9939 133.822 46.9288 133.55C47.2268 133.398 47.4651 133.151 47.6054 132.847C47.7456 132.544 47.7797 132.202 47.7021 131.877L47.701 131.892Z" fill="#0DE6CB"/>
<path opacity="0.1" d="M44.8994 131.611C44.759 131.915 44.7249 132.257 44.8025 132.582C44.5528 132.709 44.3438 132.904 44.1995 133.144C44.0552 133.384 43.9814 133.66 43.9865 133.94C43.9916 134.22 44.0754 134.493 44.2284 134.728C44.3814 134.962 44.5973 135.149 44.8515 135.266C45.1056 135.384 45.3877 135.427 45.6655 135.392C45.9433 135.356 46.2055 135.244 46.4222 135.066C46.6388 134.888 46.8011 134.653 46.8905 134.388C46.9799 134.122 46.9928 133.837 46.9277 133.565C47.214 133.424 44.9698 131.459 44.8994 131.611Z" fill="black"/>
</g>
<defs>
<linearGradient id="paint0_linear" x1="92.3492" y1="158.079" x2="137.719" y2="59.9281" gradientUnits="userSpaceOnUse">
<stop stop-color="#808080" stop-opacity="0.25"/>
<stop offset="0.54" stop-color="#808080" stop-opacity="0.12"/>
<stop offset="1" stop-color="#808080" stop-opacity="0.1"/>
</linearGradient>
<linearGradient id="paint1_linear" x1="-986.794" y1="-11.4289" x2="-981.089" y2="-8.79163" gradientUnits="userSpaceOnUse">
<stop stop-color="#808080" stop-opacity="0.25"/>
<stop offset="0.54" stop-color="#808080" stop-opacity="0.12"/>
<stop offset="1" stop-color="#808080" stop-opacity="0.1"/>
</linearGradient>
<linearGradient id="paint2_linear" x1="61.6099" y1="28076.8" x2="3290.45" y2="21091.7" gradientUnits="userSpaceOnUse">
<stop stop-color="#808080" stop-opacity="0.25"/>
<stop offset="0.54" stop-color="#808080" stop-opacity="0.12"/>
<stop offset="1" stop-color="#808080" stop-opacity="0.1"/>
</linearGradient>
<clipPath id="clip0">
<rect width="203.841" height="132.066" fill="white" transform="translate(55.4132) rotate(24.8085)"/>
</clipPath>
</defs>
</svg>
