<svg width="30" height="30" viewBox="0 0 30 30" fill="none" xmlns="http://www.w3.org/2000/svg">
<path d="M19.6875 15.9375H10.3125C9.795 15.9375 9.375 16.3575 9.375 16.875C9.375 17.3925 9.795 17.8125 10.3125 17.8125H19.6875C20.205 17.8125 20.625 17.3925 20.625 16.875C20.625 16.3575 20.205 15.9375 19.6875 15.9375ZM21.5625 10.3125H8.4375C7.92 10.3125 7.5 10.7325 7.5 11.25C7.5 11.7675 7.92 12.1875 8.4375 12.1875H21.5625C22.08 12.1875 22.5 11.7675 22.5 11.25C22.5 10.7325 22.08 10.3125 21.5625 10.3125ZM15 0C6.71627 0 0 5.87623 0 13.125C0 17.2678 2.19843 20.9559 5.625 23.3616V30L12.1959 26.0128C13.1053 26.1628 14.0409 26.25 15 26.25C23.2847 26.25 30 20.3738 30 13.125C30 5.87623 23.2847 0 15 0ZM15 24.375C13.905 24.375 12.8475 24.2475 11.8312 24.0309L7.41745 26.684L7.47652 22.3359C4.09314 20.3006 1.875 16.9369 1.875 13.125C1.875 6.91221 7.75123 1.875 15 1.875C22.2488 1.875 28.125 6.91221 28.125 13.125C28.125 19.3378 22.2488 24.375 15 24.375Z" fill="#515151"/>
</svg>
