<svg width="30" height="30" viewBox="0 0 30 30" fill="none" xmlns="http://www.w3.org/2000/svg">
<path d="M6.5625 9.375H0.9375C0.419312 9.375 0 9.79431 0 10.3125V27.1875C0 27.7057 0.419312 28.125 0.9375 28.125H6.5625C7.08069 28.125 7.5 27.7057 7.5 27.1875V10.3125C7.5 9.79431 7.08069 9.375 6.5625 9.375ZM5.625 26.25H1.875V11.25H5.625V26.25Z" fill="#515151"/>
<path d="M26.5375 11.2496H20.9985C20.5142 11.2496 20.2716 10.9264 20.1901 10.7873C20.1086 10.649 19.9439 10.2801 20.1782 9.85711L22.131 6.34056C22.5595 5.57061 22.6035 4.66515 22.2528 3.85673C21.9022 3.04741 21.21 2.46055 20.354 2.24724L18.977 1.903C18.642 1.81877 18.2867 1.92589 18.0533 2.18498L10.5771 10.4907C9.80164 11.354 9.375 12.4673 9.375 13.6263V21.5621C9.375 24.1467 11.478 26.2496 14.0625 26.2496L23.389 26.2487C25.4947 26.2487 27.3541 24.8305 27.9098 22.8008L29.9112 15.4912C29.9698 15.2358 30 14.974 30 14.7121C30 12.8032 28.4463 11.2496 26.5375 11.2496L26.5375 11.2496ZM28.093 15.0317L26.1008 22.3055C25.7675 23.5232 24.6524 24.3746 23.389 24.3746H14.0625C12.5116 24.3746 11.25 23.113 11.25 21.5621V13.6263C11.25 12.9305 11.5064 12.2622 11.9714 11.7449L19.0695 3.85858L19.899 4.06549C20.1846 4.1369 20.4153 4.33283 20.5325 4.60291C20.6497 4.87207 20.6351 5.17328 20.4922 5.43054L18.5394 8.94709C18.0505 9.82691 18.0634 10.8706 18.5742 11.7385C19.0851 12.6065 19.9915 13.1246 20.9985 13.1246H26.5375C27.4127 13.1246 28.125 13.8369 28.125 14.7122C28.125 14.8312 28.1113 14.9511 28.093 15.0317V15.0317Z" fill="#515151"/>
<path d="M0 11.25V26.25C0 27.2855 0.839424 28.125 1.875 28.125H7.5V9.375H1.875C0.839424 9.375 0 10.2144 0 11.25Z" fill="#0DE6CB"/>
<path d="M26.5375 11.2496H20.9985C20.5142 11.2496 20.2716 10.9264 20.1901 10.7873C20.1086 10.649 19.9439 10.2801 20.1782 9.85711L22.131 6.34056C22.5595 5.5706 22.6035 4.66515 22.2528 3.85673C21.9022 3.04741 21.21 2.46055 20.354 2.24724L18.977 1.903C18.642 1.81877 18.2867 1.92589 18.0533 2.18498L10.5771 10.4906C9.80164 11.354 9.375 12.4673 9.375 13.6263V23.4371C9.375 26.0217 11.478 28.1246 14.0625 28.1246L23.389 28.1237C25.4947 28.1237 27.3541 26.7055 27.9098 24.6758L29.9112 15.4912C29.9698 15.2358 30 14.974 30 14.7121C30 12.8032 28.4463 11.2496 26.5375 11.2496L26.5375 11.2496Z" fill="#0DE6CB"/>
</svg>
