<svg width="23" height="23" viewBox="0 0 23 23" fill="none" xmlns="http://www.w3.org/2000/svg">
<g clip-path="url(#clip0)">
<path d="M22.1584 7.4905C23.2812 8.61326 23.2812 10.4336 22.1584 11.5564C21.0357 12.6791 19.2153 12.6791 18.0926 11.5564C16.9698 10.4336 16.9698 8.61326 18.0926 7.4905C19.2153 6.36775 21.0357 6.36775 22.1584 7.4905Z" fill="#515151"/>
<path d="M13.5334 7.4905C14.6562 8.61326 14.6562 10.4336 13.5334 11.5564C12.4107 12.6791 10.5903 12.6791 9.46755 11.5564C8.3448 10.4336 8.3448 8.61326 9.46755 7.4905C10.5903 6.36775 12.4107 6.36775 13.5334 7.4905Z" fill="#515151"/>
<path d="M4.90841 7.4905C6.03117 8.61326 6.03117 10.4336 4.90841 11.5564C3.78566 12.6791 1.96531 12.6791 0.842553 11.5564C-0.2802 10.4336 -0.2802 8.61326 0.842553 7.4905C1.96531 6.36775 3.78566 6.36775 4.90841 7.4905Z" fill="#515151"/>
</g>
<defs>
<clipPath id="clip0">
<rect width="23" height="23" fill="white" transform="translate(0.000488281)"/>
</clipPath>
</defs>
</svg>
