<svg width="379" height="326" viewBox="0 0 379 326" fill="none" xmlns="http://www.w3.org/2000/svg">
<path d="M31.1882 77.8179H207.623V135.957H200.94V151.163L185.792 135.957H31.1882V77.8179Z" fill="#E6E6E6"/>
<path d="M202.722 83.4795H36.089V129.991H202.722V83.4795Z" fill="white"/>
<path d="M129.719 97.0589H49.4889V99.5029H129.719V97.0589Z" fill="#0DE6CB"/>
<path d="M189.322 105.513H49.4889V107.957H189.322V105.513Z" fill="#E6E6E6"/>
<path d="M189.186 113.968H49.4889V116.412H189.186V113.968Z" fill="#E6E6E6"/>
<path d="M176.435 155.635H0V213.775H6.68319V228.981L21.8315 213.775H176.435V155.635Z" fill="#E6E6E6"/>
<path d="M171.534 161.297H4.90098V207.809H171.534V161.297Z" fill="white"/>
<path d="M99.8671 175.324H19.6375V177.768H99.8671V175.324Z" fill="#0DE6CB"/>
<path d="M159.471 183.778H19.6375V186.222H159.471V183.778Z" fill="#E6E6E6"/>
<path d="M159.334 192.233H19.6375V194.677H159.334V192.233Z" fill="#E6E6E6"/>
<path d="M176.435 0H0V58.1395H6.68319V73.3456L21.8315 58.1395H176.435V0Z" fill="#E6E6E6"/>
<path d="M171.534 5.66176H4.90098V52.1735H171.534V5.66176Z" fill="white"/>
<path d="M99.8671 19.6884H19.6375V22.1323H99.8671V19.6884Z" fill="#0DE6CB"/>
<path d="M159.471 28.1429H19.6375V30.5868H159.471V28.1429Z" fill="#E6E6E6"/>
<path d="M159.334 36.5973H19.6375V39.0413H159.334V36.5973Z" fill="#E6E6E6"/>
<path d="M309.981 318.572L302.72 318.571L299.265 290.455L309.982 290.456L309.981 318.572Z" fill="#FFB8B8"/>
<path d="M311.833 325.637L288.418 325.636V325.339C288.418 322.913 289.379 320.586 291.088 318.871C292.797 317.155 295.115 316.191 297.532 316.191H297.533L311.834 316.192L311.833 325.637Z" fill="#2F2E41"/>
<path d="M299.771 297.433L293.014 300.102L279.542 275.209L289.515 271.27L299.771 297.433Z" fill="#FFB8B8"/>
<path d="M304.072 303.327L282.283 311.933L282.175 311.656C281.29 309.399 281.335 306.881 282.299 304.656C283.264 302.431 285.069 300.682 287.318 299.794L287.319 299.793L300.627 294.537L304.072 303.327Z" fill="#2F2E41"/>
<path d="M297.558 309.436L299.87 224.138L289.581 260.704L297.015 286.077L284.682 296.6L272.109 256.336L272.087 256.265L284.583 189.965L321.54 188.17L321.805 188.157L321.847 188.419C321.883 188.64 325.375 210.653 322.438 226.573C319.513 242.432 312.443 309.705 312.372 310.384L312.342 310.673L297.558 309.436Z" fill="#2F2E41"/>
<path d="M286.498 195.283L286.289 195.199L293.147 132.043L293.347 131.992C300.318 130.243 309.709 130.396 314.687 130.642C315.441 130.682 316.159 130.98 316.72 131.489C317.281 131.997 317.65 132.684 317.766 133.433L326.011 187.945L325.943 188.043C320.243 196.217 311.532 198.439 303.744 198.439C297.86 198.364 292.03 197.297 286.498 195.283Z" fill="#0DE6CB"/>
<path d="M319.159 213.735L318.911 213.712L314.53 130.479L327.841 133.497C329.295 133.831 330.574 134.697 331.427 135.924C332.281 137.152 332.65 138.655 332.462 140.14L330.735 153.975L331.327 178.315C331.739 179.81 338.479 204.577 334.734 211.03C334.545 211.396 334.283 211.718 333.964 211.978C333.645 212.237 333.276 212.428 332.881 212.538C329.285 213.405 325.6 213.838 321.903 213.828C320.222 213.827 319.184 213.737 319.159 213.735Z" fill="#3F3D56"/>
<path d="M279.96 214.299C279.312 214.008 278.739 213.574 278.282 213.029C277.826 212.485 277.497 211.843 277.322 211.154C276.455 207.648 279.383 203.24 279.806 202.628L283.347 168.856L278.079 137.656C277.989 137.123 278.008 136.576 278.136 136.051C278.264 135.525 278.497 135.031 278.821 134.598C279.146 134.166 279.555 133.805 280.024 133.537C280.492 133.269 281.01 133.1 281.546 133.04L296.551 131.36L295.79 163.456C302.23 185.306 288.204 216.813 288.062 217.128L287.983 217.303H287.792C287.717 217.303 285.877 217.269 279.96 214.299Z" fill="#3F3D56"/>
<path d="M310.793 123.161C317.843 119.292 320.434 110.42 316.58 103.343C312.727 96.2662 303.887 93.6654 296.837 97.5339C289.787 101.402 287.196 110.275 291.05 117.352C294.904 124.429 303.743 127.029 310.793 123.161Z" fill="#FFB8B8"/>
<path d="M320.474 198.672C320.343 197.867 320.389 197.044 320.61 196.259C320.83 195.475 321.219 194.748 321.75 194.131C322.28 193.514 322.939 193.021 323.68 192.687C324.42 192.354 325.225 192.187 326.037 192.199L331.072 180.504L338.899 181.842L331.557 198.257C331.446 199.625 330.84 200.905 329.852 201.853C328.865 202.802 327.565 203.355 326.198 203.406C324.832 203.457 323.495 203.003 322.44 202.131C321.385 201.258 320.685 200.027 320.474 198.672V198.672Z" fill="#FFB8B8"/>
<path d="M327.564 187.956L331.722 162.911L324.619 151.028L326.429 134.075L326.832 133.974C328.179 133.64 329.599 133.781 330.854 134.374C332.11 134.966 333.124 135.974 333.727 137.229L345.33 161.535L345.377 161.632L336.949 194.865L327.564 187.956Z" fill="#3F3D56"/>
<path d="M313.35 122.123C313.683 122.22 315.079 120.637 316.608 118.739C318.214 116.762 319.373 114.457 320.005 111.986C320.636 109.514 320.726 106.935 320.267 104.425C320.246 104.312 320.225 104.205 320.204 104.104C319.697 101.685 317.399 99.4574 314.99 99.9697C315.172 97.827 313.734 95.809 311.912 94.6779C310.09 93.5469 307.931 93.1277 305.826 92.7289C303.424 92.274 300.992 91.817 298.553 91.9722C296.201 92.1174 293.922 92.8482 291.922 94.0985C289.492 95.7029 287.62 98.027 286.566 100.748C285.512 103.469 285.329 106.452 286.041 109.283C289.107 105.789 292.739 101.988 297.989 103.502C299.178 103.858 300.287 104.44 301.256 105.218C304.447 107.733 306.051 111.438 307.603 115.058C308.378 113.077 311.253 112.331 312.887 113.688C313.936 114.559 314.367 116.007 314.328 117.372C314.219 118.736 313.905 120.076 313.396 121.345" fill="#2F2E41"/>
<path d="M311.474 176.679H310.79V173.976C310.789 173.174 310.472 172.406 309.907 171.84C309.343 171.273 308.577 170.954 307.779 170.953H299.199C298.401 170.954 297.635 171.273 297.071 171.84C296.506 172.406 296.189 173.174 296.188 173.976V192.665C296.189 193.466 296.506 194.235 297.071 194.801C297.635 195.368 298.401 195.687 299.199 195.687H307.779C308.577 195.687 309.343 195.368 309.907 194.801C310.472 194.235 310.789 193.466 310.79 192.665V179.885H311.474V176.679Z" fill="#2F2E41"/>
<path d="M303.717 181.717C304.725 181.717 305.542 180.897 305.542 179.885C305.542 178.873 304.725 178.053 303.717 178.053C302.709 178.053 301.892 178.873 301.892 179.885C301.892 180.897 302.709 181.717 303.717 181.717Z" fill="white"/>
<path d="M305.206 187.185C304.859 186.449 304.355 185.797 303.73 185.277C303.105 184.757 302.374 184.381 301.588 184.175C300.803 183.969 299.982 183.939 299.183 184.086C298.384 184.233 297.627 184.554 296.966 185.027L286.207 178.268L280.52 183.829L295.848 193.16C296.712 194.223 297.935 194.93 299.285 195.149C300.635 195.367 302.017 195.081 303.171 194.345C304.324 193.609 305.169 192.473 305.544 191.153C305.919 189.834 305.799 188.422 305.206 187.185Z" fill="#FFB8B8"/>
<path d="M266.725 174.311L276.57 136.978C276.829 136.013 277.438 135.181 278.278 134.645C279.118 134.109 280.128 133.909 281.108 134.083L284.493 134.7L288.1 154.613L280.764 171.397L294.033 179.393L292.167 194.376L266.725 174.311Z" fill="#3F3D56"/>
</svg>
