<svg width="17" height="17" viewBox="0 0 17 17" fill="none" xmlns="http://www.w3.org/2000/svg">
<path d="M14.3438 0.597656H2.65625C1.19155 0.597656 0 1.78921 0 3.25391V12.5508C0 14.0155 1.19155 15.207 2.65625 15.207H8.96484C9.21815 15.207 9.4494 15.0629 9.56107 14.8354C9.67262 14.6081 9.64512 14.3369 9.49 14.1366L7.75306 11.8918L12.5673 5.76826L15.6719 9.47197V10.5918C15.6719 10.9586 15.9691 11.2559 16.3359 11.2559C16.7027 11.2559 17 10.9586 17 10.5918V3.25391C17 1.78921 15.8084 0.597656 14.3438 0.597656V0.597656ZM13.0597 4.28826C12.9312 4.13496 12.7407 4.04741 12.5404 4.05091C12.3403 4.05402 12.1523 4.14715 12.0287 4.30447L6.91494 10.8088L5.17359 8.55849C5.04778 8.39585 4.85388 8.30078 4.64844 8.30078C4.64818 8.30078 4.64779 8.30078 4.64753 8.30078C4.4417 8.30104 4.24754 8.39676 4.12212 8.55992L2.66066 10.4598C2.43706 10.7505 2.4914 11.1674 2.78206 11.391C3.07285 11.6147 3.4897 11.5603 3.7133 11.2696L4.64999 10.052L7.6113 13.8789H2.65625C1.92397 13.8789 1.32812 13.2831 1.32812 12.5508V3.25391C1.32812 2.52162 1.92397 1.92578 2.65625 1.92578H14.3438C15.076 1.92578 15.6719 2.52162 15.6719 3.25391V7.40456L13.0597 4.28826ZM4.64844 2.98828C3.54988 2.98828 2.65625 3.88191 2.65625 4.98047C2.65625 6.07903 3.54988 6.97266 4.64844 6.97266C5.74699 6.97266 6.64062 6.07903 6.64062 4.98047C6.64062 3.88191 5.74699 2.98828 4.64844 2.98828ZM4.64844 5.64453C4.2823 5.64453 3.98438 5.34661 3.98438 4.98047C3.98438 4.61433 4.2823 4.31641 4.64844 4.31641C5.01458 4.31641 5.3125 4.61433 5.3125 4.98047C5.3125 5.34661 5.01458 5.64453 4.64844 5.64453ZM17 13.248C17 13.6148 16.7027 13.9121 16.3359 13.9121H14.5098V15.7383C14.5098 16.1051 14.2125 16.4023 13.8457 16.4023C13.4789 16.4023 13.1816 16.1051 13.1816 15.7383V13.9121H11.3555C10.9887 13.9121 10.6914 13.6148 10.6914 13.248C10.6914 12.8813 10.9887 12.584 11.3555 12.584H13.1816V10.7578C13.1816 10.391 13.4789 10.0938 13.8457 10.0938C14.2125 10.0938 14.5098 10.391 14.5098 10.7578V12.584H16.3359C16.7027 12.584 17 12.8813 17 13.248Z" fill="#515151" fill-opacity="0.5"/>
</svg>
